# xmcd
#
# Track frame offsets:
#	150
#	1864
#	12296
#	20699
#	30579
#	40292
#	46903
#	54491
#	67443
#	75381
#	79767
#	92072
#	100619
#	108437
#	118735
#	130422
#	142693
#	151874
#	162745
#
# Disc length: 2284 seconds
#
# Revision: 0
# Processed by: cddbd v1.5.2PL0 Copyright (c) Steve Scherf et al.
# Submitted via: audiograbber 1.83.01
#
DISCID=ed08ea13
DTITLE=Scroat Belly - Scroat Belly
DYEAR=1995
DGENRE=Bluegrass
TTITLE0=Booze Won't Let Me Down
TTITLE1=New Orleans
TTITLE2=Gun In Hand
TTITLE3=Tennessee Moon
TTITLE4=Whiskey Drinkin' S.O.B.
TTITLE5=Ben
TTITLE6=Library
TTITLE7=Pocket
TTITLE8=Born In A Barn
TTITLE9=Pardner
TTITLE10=Drinkin' and Flailin'
TTITLE11=Danger
TTITLE12=Gypsy Rain
TTITLE13=The Wind
TTITLE14=One More
TTITLE15=Harold
TTITLE16=Plowman Blues
TTITLE17=Mainstream Blast/Desert
TTITLE18=Blowin' Up The White House
EXTD=
EXTT0=
EXTT1=
EXTT2=
EXTT3=
EXTT4=
EXTT5=
EXTT6=
EXTT7=
EXTT8=
EXTT9=
EXTT10=
EXTT11=
EXTT12=
EXTT13=
EXTT14=
EXTT15=
EXTT16=
EXTT17=
EXTT18=
PLAYORDER=
